<?xml version="1.0" encoding="UTF-8"?>
<svg id="Layer_2" data-name="Layer 2" xmlns="http://www.w3.org/2000/svg" viewBox="0 0 3435.7 800">
  <defs>
    <style>
      .cls-1 {
        fill: none;
      }

      .cls-2 {
        fill: #fff;
      }

      .cls-3 {
        fill: #333;
      }
    </style>
  </defs>
  <rect class="cls-2" width="3431.3" height="800" rx="50" ry="50"/>
  <rect class="cls-1" x="1546.1" y="622.03" width="37.51" height="37.51" rx=".97" ry=".97"/>
  <path class="cls-1" d="M1853.07,659.53h35.56c.54,0,.97-.43.97-.97v-15.26c-12.31-1.09-24.83-2.29-37.51-3.59v18.85c0,.54.43.97.97.97Z"/>
  <path d="M1624.01,690.06c0,.54.43.97.97.97h76.52c.54,0,.97-.43.97-.97v-29.56c0-.54-.43-.97-.97-.97h-41.02c-.54,0-.97-.43-.97-.97v-35.56c0-.54.43-.97.97-.97h41.02c.54,0,.97-.43.97-.97v-1.46c-26.48-4.53-52.78-9.64-78.47-15.39v85.86Z"/>
  <path d="M1712.29,622.03h4.77c-1.89-.31-3.78-.62-5.66-.93.02.52.41.93.9.93Z"/>
  <path d="M1742.73,690.06c0,.54.4.97.9.97l36.18-.94c.5,0,.9-.43.9-.97v-57.75c-12.62-1.66-25.3-3.44-37.98-5.34v64.03Z"/>
  <path d="M1515.62,590.57c-.54,0-.97.43-.97.97v98.52c0,.54.43.97.97.97h98.52c.54,0,.97-.43.97-.97v-87.89c-15.67-3.62-31.09-7.48-46.16-11.61h-53.33ZM1583.6,623v35.56c0,.54-.43.97-.97.97h-35.56c-.54,0-.97-.43-.97-.97v-35.56c0-.54.43-.97.97-.97h35.56c.54,0,.97.43.97.97Z"/>
  <path class="cls-1" d="M1920.08,590.57h-98.52c-.54,0-.97.43-.97.97v44.74c10.59,1.22,21.1,2.36,31.51,3.42v18.85c0,.54.43.97.97.97h35.56c.54,0,.97-.43.97-.97v-15.26c10.66.95,21.15,1.82,31.45,2.63v-54.38c0-.54-.43-.97-.97-.97Z"/>
  <path d="M1889.6,658.56c0,.54-.43.97-.97.97h-35.56c-.54,0-.97-.43-.97-.97v-18.85c-10.4-1.07-20.92-2.21-31.51-3.42v53.77c0,.54.43.97.97.97h98.52c.54,0,.97-.43.97-.97v-44.14c-10.3-.81-20.8-1.68-31.45-2.63v15.26Z"/>
  <path class="cls-3" d="M1701.51,590.63v-.05h-76.52c-.54,0-.97.43-.97.97v12.66c25.69,5.75,51.99,10.85,78.47,15.39v-27.99c0-.54-.43-.97-.97-.97Z"/>
  <path class="cls-3" d="M1781.62,622.03h29.17c.5,0,.9-.43.9-.97v-29.51c0-.54-.4-.97-.9-.97h-98.5c-.5,0-.9.43-.9.97v29.51s0,.03,0,.04c1.89.31,3.78.62,5.66.93h24.77c.5,0,.9.43.9.97v3.04c12.69,1.9,25.36,3.68,37.98,5.34v-8.38c0-.54.4-.97.9-.97Z"/>
  <path class="cls-3" d="M1920.08,590.57h-98.52c-.54,0-.97.43-.97.97v44.74c10.59,1.22,21.1,2.36,31.51,3.42v-16.71c0-.54.43-.97.97-.97h35.56c.54,0,.97.43.97.97v20.3c10.66.95,21.15,1.82,31.45,2.63v-54.38c0-.54-.43-.97-.97-.97Z"/>
  <path class="cls-3" d="M1614.14,590.57h-45.19c15.07,4.12,30.49,7.99,46.16,11.61v-10.63c0-.54-.43-.97-.97-.97Z"/>
  <g>
    <path d="M1850.37,246.35c0-75.89-61.55-137.38-137.38-137.38h0c-75.89,0-137.38,61.49-137.38,137.38v19.33s.12,0,.37.06c.18,0,.37.06.62.12h0c.12,0,.31,0,.49.06.43.06.92.18,1.48.31.12,0,.25,0,.37.06.18,0,.37.06.55.12.12,0,.25,0,.31.06.12,0,.25,0,.31.06.18,0,.37.06.55.12.25,0,.49.06.68.12h0c.31,0,.68.12.98.18.18,0,.37.06.55.12h.31c.25,0,.49.06.74.12h.31c.43.06.92.18,1.42.25.12,0,.25,0,.37.06.18,0,.43.06.62.12.18,0,.43.06.68.12.25,0,.43.06.68.12.25,0,.49.06.68.12.25,0,.55.12.8.18.37.06.74.12,1.11.18.18,0,.37.06.55.12.25,0,.49.12.8.12s.55.12.86.18c.25,0,.55.12.86.18.31,0,.62.12.86.18.37.06.8.12,1.17.25.25,0,.49.06.74.12.25,0,.55.12.8.12,1.17.25,2.4.43,3.63.68.18,0,.31,0,.49.06.43.06.8.12,1.23.25.18,0,.31.06.49.12.43.06.8.12,1.23.25.18,0,.43.06.62.12.74.12,1.48.31,2.28.43.18,0,.37.06.55.12.43.06.8.12,1.23.25.25,0,.49.12.74.12,1.48.25,2.95.55,4.43.8.18,0,.37.06.55.12.49.06.98.18,1.48.25.18,0,.43.06.62.12,1.54.31,3.14.55,4.8.86.25,0,.49.06.74.12.55.12,1.11.18,1.66.31h.25c1.78.31,3.63.68,5.54.98.25,0,.43.06.68.12.55.12,1.11.18,1.66.31.12,0,.31,0,.43.06,1.91.37,3.82.68,5.79,1.05.25,0,.43.06.68.12,2.03.37,4.12.74,6.22,1.11h.25c.62.12,1.29.25,1.97.37.25,0,.43.06.68.12.68.12,1.29.25,1.97.37h.18c1.42.25,2.83.49,4.31.74h.31c.68.12,1.42.25,2.09.37.18,0,.31,0,.49.06,2.28.37,4.55.8,6.83,1.23h.31c.74.12,1.54.25,2.28.37h.31c2.34.43,4.74.8,7.14,1.23.12,0,.25,0,.37.06.8.12,1.6.25,2.4.43h.25c2.46.43,4.99.86,7.51,1.29h.25c.8.12,1.6.31,2.46.43.12,0,.31,0,.43.06,2.46.43,4.92.86,7.39,1.23.18,0,.43.06.62.12.8.12,1.6.25,2.4.43h.12c2.59.43,5.17.86,7.82,1.29.25,0,.43.06.68.12.8.12,1.66.25,2.46.43h.06c1.79.31,3.57.62,5.36.86h.25c.8.12,1.66.25,2.52.43.18,0,.37.06.62.12,2.65.43,5.36.86,8.06,1.29h.25c.86.12,1.72.31,2.59.43.18,0,.31,0,.49.06,2.71.43,5.48.86,8.19,1.35h.31c.86.12,1.79.31,2.65.43.18,0,.37,0,.55.06,2.71.43,5.48.86,8.19,1.29.12,0,.25,0,.37.06.86.12,1.79.31,2.65.43.18,0,.31,0,.49.06,2.71.43,5.42.86,8.12,1.29.18,0,.43.06.62.12.86.12,1.72.25,2.59.43.18,0,.31,0,.49.06,2.71.43,5.42.8,8.06,1.23.25,0,.55.06.8.12.86.12,1.72.25,2.59.37h.37c2.71.43,5.48.8,8.19,1.23.31,0,.62.06.86.12.86.12,1.66.25,2.52.37h.43c1.79.25,3.63.55,5.42.8h.25c.86.12,1.66.25,2.52.37.31,0,.62.06.86.12.86.12,1.66.25,2.52.37h0c1.85.25,3.69.55,5.54.8.18,0,.31,0,.49.06.86.12,1.66.25,2.52.37.31,0,.62.06.92.12,2.65.37,5.23.74,7.88,1.11.25,0,.49.06.68.12.8.12,1.6.25,2.4.31.31,0,.62.06.92.12,2.59.37,5.11.68,7.69,1.05.31,0,.62.06.86.12.8.12,1.54.18,2.34.31.31,0,.62.06.98.12,2.52.31,4.99.68,7.45.98.31,0,.68.06.98.12.74.12,1.48.18,2.22.31.31,0,.68.06.98.12,1.66.18,3.26.43,4.92.62h.12c42.9,5.36,82.17,8.99,110.05,8.99,107.53,0-110.05-73.25-110.05-73.25l.18.74Z"/>
    <path d="M1941.47,353.88c-1.23-16.37-14.34-27.21-29.67-29.61h-.18c-8.86-1.54-.74,3.2,8.74,11.2,11.94,10.28,8.99,25.91-2.77,34.72-20.25,14.9-50.66,6.83-70.17-5.72-1.54-.98-3.02-2.03-4.49-3.08.76-2.21,1.47-4.44,2.12-6.69-32.05-4.51-201.36-30.13-269.5-76.65v20.44c-24.74,3.2-54.47-2.34-71.09-21.3-7.14-8.25-11.39-20.19-7.45-30.84,6.71-17.48,28.5-16.99,43.7-11.51,4.49,1.54-2.77-5.85-12.25-8.99-24.01-8.37-47.09,4.37-50.78,30.16-3.39,23.64,10.83,46.29,29.05,60.2,1.29.98,2.65,1.97,4,2.89-3.69-.06-7.39.12-11.14.74-25.17,3.45-40.01,25.17-31.64,49.86,7.69,22.65,30.65,36.38,53.12,40.5,1.42.25,2.83.49,4.31.74-4,1.79-7.88,3.94-11.51,6.59-20.93,14.46-24.25,40.56-5.66,58.78,17.11,16.68,43.76,18.53,65.74,12.06.86-.25,1.78-.55,2.65-.8-4.06,18.65,5.54,36.62,26.04,43.09,19.27,6.03,39.76-.43,55.7-12.06,3.26,20.87,20.87,34.65,43.58,30.84,23.57-3.94,40.81-24.37,48.56-45.92,3.63-10.03,5.79-20.44,6.65-30.96,5.66,17.6,14.9,34.16,28.13,46.66,16.56,16.06,43.7,25.17,64.81,12.56,15.7-9.29,20-27.76,14.9-44.13-2.22-7.57-5.85-14.46-10.16-20.87,1.72.43,3.45.74,5.17,1.05,22.65,4.25,50.35-3.2,61-25.36,7.57-15.7,1.91-32.56-10.22-43.52,17.42-8.12,32.31-25.05,30.71-45.06ZM1501.38,376.4c-10.16-4.12-19.27-12.86-20.62-24.13-1.97-18.65,17.73-28.07,33.73-30.04.25,0,.49-.06.74-.12,15.94,10.09,34.16,16.31,52.93,18.9,3.02.49,6.28.8,9.73.98.98,5.35,2.28,10.59,3.88,15.7-.74.62-1.48,1.17-2.09,1.66-20.68,16.25-52.81,27.21-78.29,17.05ZM1541.02,467.01v.12c-10.89.92-23.02-2.77-29.3-12.19-10.16-15.76,3.08-33.05,16.5-42.1.68-.43,1.35-.92,2.03-1.35,19.14,2.03,38.59-.74,56.87-7.02,4.74-1.54,10.03-3.88,15.26-6.34,1.85,2.52,3.82,4.99,5.79,7.32-1.6,3.45-3.63,7.94-5.05,10.96-11.08,23.88-34.78,48.19-62.11,50.6ZM1627.68,507.51v.06c-9.29,5.72-21.79,7.94-31.64,2.4-9.66-5.6-12.13-15.51-10.89-25.61,16.99-6.96,32.19-17.79,44.99-31.02,4.8-4.8,9.85-11.26,14.46-17.48,4.92,2.83,10.09,5.35,15.39,7.57-1.42,24.25-11.76,51.21-32.31,64.08ZM1713.85,517.48h0c-5.72,9.36-15.82,16.99-27.14,16.43-12.13-.68-19.02-9.79-22.16-20.5.68-.62,1.29-1.17,1.97-1.78,16.37-15.39,27.82-35.27,34.47-56.75.12-.43.31-.92.43-1.35,3.82.31,7.69.49,11.57.49h3.88c7.02,20.8,8,45.18-3.02,63.46ZM1857.88,501.85c-4.31,16.93-21.36,21.73-35.95,14.4-24.81-12.8-31.82-47.09-28.93-72.75.43-4.37,1.35-8.8,2.34-13.17,15.51,16.74,35.64,30.47,57.74,36.07,4.68,11.2,7.76,23.7,4.8,35.45ZM1910.88,413.15c5.72,16.5-5.79,29.91-22.04,31.88l.06-.06c-27.76,3.08-52.5-21.67-64.32-44.62-.37-.68-.68-1.42-1.05-2.09.49-.68.98-1.35,1.48-2.03,2.09.92,4.12,1.72,6.03,2.4,22.96,8.49,49.92,11.14,73.31,2.89,2.77,3.51,5.05,7.39,6.52,11.63Z"/>
    <path class="cls-3" d="M1846.74,348.21c1.91-8.19,3.14-16.68,3.51-25.36-35.58-4.43-77.12-10.53-124.52-18.22-73.68-12-137.44-24.13-150.19-26.59,68.14,46.51,237.45,72.13,269.5,76.65.62-2.14,1.19-4.29,1.7-6.48Z"/>
  </g>
</svg>