<?xml version="1.0" encoding="UTF-8"?>
<svg id="Layer_2" data-name="Layer 2" xmlns="http://www.w3.org/2000/svg" viewBox="990 210 1460 380">
  <defs>
    <style>
      .cls-1 {
        fill: none;
      }

      .cls-2 {
        fill: #fff;
      }

      .cls-3 {
        fill: #333;
      }
    </style>
  </defs>
  <rect class="cls-1" x="1122.14" y="334.86" width="130.08" height="130.08" rx="3.37" ry="3.37"/>
  <path class="cls-1" d="M2186.85,464.95h123.34c1.87,0,3.37-1.5,3.37-3.37v-52.92c-42.69-3.8-86.11-7.93-130.08-12.44v65.37c0,1.87,1.5,3.37,3.37,3.37Z"/>
  <path d="M1392.38,570.85c0,1.87,1.5,3.37,3.37,3.37h265.42c1.87,0,3.37-1.5,3.37-3.37v-102.53c0-1.87-1.5-3.37-3.37-3.37h-142.27c-1.87,0-3.37-1.5-3.37-3.37v-123.34c0-1.87,1.5-3.37,3.37-3.37h142.27c1.87,0,3.37-1.5,3.37-3.37v-5.07c-91.83-15.73-183.05-33.43-272.17-53.37v297.8Z"/>
  <path d="M1698.56,334.86h16.54c-6.55-1.07-13.1-2.15-19.64-3.23.07,1.8,1.41,3.23,3.11,3.23Z"/>
  <path d="M1804.14,570.85c0,1.87,1.39,3.37,3.13,3.37l125.48-3.25c1.74,0,3.13-1.5,3.13-3.37v-200.29c-43.77-5.77-87.74-11.94-131.74-18.52v222.07Z"/>
  <path d="M1016.42,225.77c-1.87,0-3.37,1.5-3.37,3.37v341.71c0,1.87,1.5,3.37,3.37,3.37h341.71c1.87,0,3.37-1.5,3.37-3.37v-304.83c-54.34-12.55-107.82-25.95-160.1-40.25h-184.98ZM1252.22,338.24v123.34c0,1.87-1.5,3.37-3.37,3.37h-123.34c-1.87,0-3.37-1.5-3.37-3.37v-123.34c0-1.87,1.5-3.37,3.37-3.37h123.34c1.87,0,3.37,1.5,3.37,3.37Z"/>
  <path class="cls-1" d="M2419.28,225.77h-341.71c-1.87,0-3.37,1.5-3.37,3.37v155.19c36.73,4.22,73.19,8.17,109.28,11.87v65.37c0,1.87,1.5,3.37,3.37,3.37h123.34c1.87,0,3.37-1.5,3.37-3.37v-52.92c36.96,3.29,73.36,6.32,109.09,9.11v-188.62c0-1.87-1.5-3.37-3.37-3.37Z"/>
  <path d="M2313.56,461.57c0,1.87-1.5,3.37-3.37,3.37h-123.34c-1.87,0-3.37-1.5-3.37-3.37v-65.37c-36.09-3.7-72.55-7.65-109.28-11.87v186.51c0,1.87,1.5,3.37,3.37,3.37h341.71c1.87,0,3.37-1.5,3.37-3.37v-153.09c-35.74-2.8-72.13-5.83-109.09-9.11v52.92Z"/>
  <path class="cls-3" d="M1661.17,225.96v-.19h-265.42c-1.87,0-3.37,1.5-3.37,3.37v43.9c89.11,19.94,180.33,37.64,272.17,53.37v-97.08c0-1.87-1.5-3.37-3.37-3.37Z"/>
  <path class="cls-3" d="M1939.02,334.86h101.17c1.74,0,3.13-1.5,3.13-3.37v-102.34c0-1.87-1.39-3.37-3.13-3.37h-341.63c-1.74,0-3.13,1.5-3.13,3.37v102.34s.02.09.03.14c6.55,1.09,13.09,2.17,19.64,3.23h85.91c1.74,0,3.13,1.5,3.13,3.37v10.55c44.01,6.59,87.97,12.76,131.74,18.52v-29.07c0-1.87,1.39-3.37,3.13-3.37Z"/>
  <path class="cls-3" d="M2419.28,225.77h-341.71c-1.87,0-3.37,1.5-3.37,3.37v155.19c36.73,4.22,73.19,8.17,109.28,11.87v-57.97c0-1.87,1.5-3.37,3.37-3.37h123.34c1.87,0,3.37,1.5,3.37,3.37v70.42c36.96,3.29,73.36,6.32,109.09,9.11v-188.62c0-1.87-1.5-3.37-3.37-3.37Z"/>
  <path class="cls-3" d="M1358.13,225.77h-156.72c52.28,14.3,105.75,27.71,160.1,40.25v-36.88c0-1.87-1.5-3.37-3.37-3.37Z"/>
</svg>