<?xml version="1.0" encoding="UTF-8"?>
<svg id="Layer_2" data-name="Layer 2" xmlns="http://www.w3.org/2000/svg" viewBox="1000 0 2435.7 800">
  <defs>
    <style>
      .cls-1 {
        fill: none;
      }

      .cls-2 {
        fill: #fff;
      }

      .cls-3 {
        fill: #333;
      }
    </style>
  </defs>
    <g>
    <path class="cls-3" d="M1340.41,225.77h-148.68c49.59,13.57,100.32,26.28,151.88,38.19v-34.99c0-1.78-1.42-3.2-3.2-3.2Z"/>
    <path d="M1772.89,539.31l-67.49-67.49c-1.24-1.24-1.93-2.91-1.93-4.66v-203.21c-51.55-11.9-102.29-24.62-151.88-38.19h-175.49c-1.77,0-3.2,1.43-3.2,3.2v324.16c0,1.77,1.43,3.2,3.2,3.2h242.38c1.74,0,3.41.69,4.65,1.92l65.4,65.4c1.45,1.45,3.66,1.55,4.99.22l79.59-79.59c1.32-1.32,1.23-3.54-.22-4.99ZM1599.8,449.47c0,1.78-1.42,3.2-3.2,3.2h-117.01c-1.78,0-3.2-1.42-3.2-3.2v-117c0-1.78,1.42-3.2,3.2-3.2h117.01c1.78,0,3.2,1.42,3.2,3.2v117Z"/>
    <path class="cls-2" d="M1735.74,329.26h15.69c-6.21-1.01-12.43-2.04-18.64-3.07.07,1.71,1.34,3.07,2.95,3.07Z"/>
    <path d="M1835.9,553.14c0,1.78,1.32,3.2,2.97,3.2h119.04c1.65,0,2.97-1.42,2.97-3.2v-193.09c-41.52-5.47-83.23-11.32-124.98-17.57v210.67Z"/>
    <path d="M1016.25,225.77c-1.78,0-3.2,1.42-3.2,3.2v324.16c0,1.78,1.42,3.2,3.2,3.2h324.16c1.78,0,3.2-1.42,3.2-3.2v-289.18c-51.55-11.9-102.29-24.62-151.88-38.19h-175.49ZM1239.94,332.46v117c0,1.78-1.42,3.2-3.2,3.2h-117.01c-1.78,0-3.2-1.42-3.2-3.2v-117c0-1.78,1.42-3.2,3.2-3.2h117.01c1.78,0,3.2,1.42,3.2,3.2Z"/>
    <path class="cls-1" d="M2419.45,225.77h-324.16c-1.78,0-3.2,1.42-3.2,3.2v147.23c34.85,4,69.43,7.75,103.67,11.26v62.01c0,1.78,1.42,3.2,3.2,3.2h117c1.78,0,3.2-1.42,3.2-3.2v-50.2c35.06,3.12,69.59,5.99,103.49,8.64v-178.94c0-1.78-1.42-3.2-3.2-3.2Z"/>
    <path d="M2319.17,449.47c0,1.78-1.42,3.2-3.2,3.2h-117c-1.78,0-3.2-1.42-3.2-3.2v-62.01c-34.24-3.51-68.82-7.26-103.67-11.26v176.94c0,1.78,1.42,3.2,3.2,3.2h324.16c1.78,0,3.2-1.42,3.2-3.2v-145.23c-33.9-2.65-68.43-5.53-103.49-8.64v50.2Z"/>
    <path class="cls-3" d="M1963.85,329.26h95.97c1.65,0,2.97-1.42,2.97-3.2v-97.09c0-1.78-1.32-3.2-2.97-3.2h-324.09c-1.65,0-2.97,1.42-2.97,3.2v97.09s.02.09.02.13c6.21,1.03,12.42,2.05,18.64,3.07h81.5c1.65,0,2.97,1.42,2.97,3.2v10.01c41.75,6.25,83.46,12.1,124.98,17.57v-27.58c0-1.78,1.32-3.2,2.97-3.2Z"/>
    <path class="cls-3" d="M2419.45,225.77h-324.16c-1.78,0-3.2,1.42-3.2,3.2v147.23c34.85,4,69.43,7.75,103.67,11.26v-55c0-1.78,1.42-3.2,3.2-3.2h117c1.78,0,3.2,1.42,3.2,3.2v66.8c35.06,3.12,69.59,5.99,103.49,8.64v-178.94c0-1.78-1.42-3.2-3.2-3.2Z"/>
    <path class="cls-3" d="M1700.27,225.95v-.18h-324.16c-1.78,0-3.2,1.42-3.2,3.2v41.65c84.54,18.91,243.45,35.71,330.56,50.63v-92.1c0-1.78-1.42-3.2-3.2-3.2Z"/>
  </g>
</svg>